<?xml version="1.0" encoding="UTF-8"?> <!-- Generator: Adobe Illustrator 21.0.0, SVG Export Plug-In . SVG Version: 6.00 Build 0) --> <svg xmlns="http://www.w3.org/2000/svg" xmlns:xlink="http://www.w3.org/1999/xlink" id="Layer_1" x="0px" y="0px" viewBox="0 0 226 150" style="enable-background:new 0 0 226 150;" xml:space="preserve"> <path d="M219.8,23.8c-0.4,0.2-42.4,17.9-61.6,36.1c5.5,1,18.5,4.1,25,12.8c4.4,5.9,5,13.1,1.9,21.5l-6.3,14h-29.6l0.8-1.7 c0.1-0.2,10.2-21.7-4.2-26.9l-0.1,0c0,0-3-1.3-8.1-1.3c-7.2,0-18.8,2.6-32.9,14.9c-0.9,1.1-8.4,10-23.9,19.5 c-14.9,9.1-40.1,20.3-76,22.1L1,135l25.1-23.4l0.6,0c6.7-0.6,15.7-1.8,20.8-3.4c-9.5-0.5-30.3-2.9-40.6-15 C-0.3,84.6-0.9,72.9,5,58.4c0.2-0.4,16-32.4,69.1-37.8c0.1,0,15-1.6,32.2-1.6c7.3,0,14.1,0.3,20.1,0.9l1.8,0.2l-6.9,17l-1.1-0.1 c0,0-2.4-0.1-6.2-0.1c-12.6,0-44.1,1.5-64.2,15.2C49,52.7,36.6,62.8,37.8,71.8c0.5,3.6,3.1,6.7,7.9,9c0.6,0.2,3.6,1,8.1,1 c9.1,0,22.7-3.2,36-18.2c0.7-1.2,9.5-15.1,10.7-20.4l0.2-0.8l0.9-0.2c0.2,0,6.1-1.1,10.9-1.1c1.4,0,5.8,0,6.8,2.3l0.2,0.4l-9.5,24 c4.3-2.3,14.1-8.4,34.2-24.1c6.5-5,27.9-21.4,31.1-22.2l0.2,0h0.2l50.1,0.1"></path> </svg> 